<svg id="Layer_1" xmlns="http://www.w3.org/2000/svg" xmlns:xlink="http://www.w3.org/1999/xlink" x="0px" y="0px" width="128px" height="128px" viewBox="0 0 128 128" enable-background="new 0 0 128 128" xml:space="preserve">
	<g>
		<g>
			<g>
				<path fill="white" d="M111.687,89.74l-1.299-1.111c-1.537-1.314-15.016-13.1-15.016-21.713c0-9.027,7.318-16.371,16.314-16.371c8.995,0,16.313,7.344,16.313,16.371c0,8.613-13.479,20.398-15.015,21.713L111.687,89.74z M111.687,54.54c-6.793,0-12.32,5.552-12.32,12.376c0,5.178,7.967,13.541,12.32,17.525c4.353-3.984,12.319-12.348,12.319-17.525C124.006,60.091,118.479,54.54,111.687,54.54z"/>
			</g>
			<g>
				<path fill="white" d="M111.686,74.135c-3.971,0-7.2-3.238-7.2-7.219c0-3.979,3.229-7.215,7.2-7.215c3.966,0,7.191,3.236,7.191,7.215C118.877,70.896,115.651,74.135,111.686,74.135z M111.686,63.695c-1.769,0-3.206,1.444-3.206,3.221s1.438,3.225,3.206,3.225c1.763,0,3.197-1.447,3.197-3.225S113.448,63.695,111.686,63.695z"/>
			</g>
		</g>
		<g>
			<g>
				<path fill="white" d="M34.065,51.728l-1.298-1.111C31.229,49.301,17.751,37.515,17.751,28.9c0-9.026,7.318-16.37,16.314-16.37c8.995,0,16.313,7.344,16.313,16.37c0,8.614-13.478,20.4-15.014,21.716L34.065,51.728z M34.065,16.525c-6.793,0-12.32,5.552-12.32,12.375c0,5.18,7.966,13.542,12.32,17.527C38.418,42.443,46.384,34.08,46.384,28.9C46.384,22.077,40.857,16.525,34.065,16.525z"/>
			</g>
			<g>
				<path fill="white" d="M34.064,36.118c-3.97,0-7.199-3.238-7.199-7.219c0-3.979,3.229-7.216,7.199-7.216c3.966,0,7.193,3.237,7.193,7.216C41.257,32.88,38.03,36.118,34.064,36.118z M34.064,25.677c-1.768,0-3.206,1.446-3.206,3.222c0,1.778,1.438,3.225,3.206,3.225c1.764,0,3.199-1.447,3.199-3.225C37.263,27.123,35.828,25.677,34.064,25.677z"/>
			</g>
		</g>
		<g>
			<g>
				<path fill="white" d="M35.709,115.469L31,105.139l0.465-10.154l-4.197-8.479l1.579-5.664l-1.032,0.684l-1.045-2.635l-2.83-0.576l-8.318-7.121l-1.813-9.729l-2.747-5.537l-8,5.911L0,54.386l5.953-12.327l13.127-0.628l0.191,3.989L8.517,45.935l-4.144,8.583l0.437,1.064l7.714-5.699l5.11,10.304l1.656,8.89l5.433,4.65l-1.919-4.84l7.871-4.391l7.542-7.931l4.157-5.887l8.555-7.18l2.028-6.47l3.811,1.194l-2.377,7.585l-9.052,7.598l-4.126,5.807l-8.06,8.477l-5.344,2.98l1.879,4.74l0.101,0.021l3.522-2.336l14.557,12.107l-9.635,21.744l1.264,7.357L35.709,115.469z M31.526,86.104l3.975,8.031l-0.464,10.158l7.955-17.951l-9.361-7.785L31.526,86.104z"/>
			</g>
			<g>
				<polygon fill="white" points="65.27,105.594 61.324,83.525 53.006,82.451 51.755,67.57 61.811,67.977 66.943,67.703 67.97,66.668 63.383,64.44 60.291,67.281 50.775,62.791 55.897,58.805 56.347,56.987 60.23,48.708 70.523,41.117 71.995,46.872 87.587,39.6 120.873,45.145 120.218,49.084 88.152,43.743 69.319,52.527 68.123,47.85 63.416,51.322 60.058,58.482 59.487,61.071 58.356,61.951 59.566,62.522 62.682,59.66 74.741,65.516 68.692,71.609 61.836,71.975 56.114,71.742 56.716,78.904 64.74,79.939 67.705,96.525 72.575,90.764 73.452,81.629 76.738,76.809 78.502,73.699 75.867,68.244 87.251,69.377 89.233,74.855 91.608,69.984 96.599,78.338 101.564,84.568 98.442,87.059 93.239,80.502 91.964,78.367 88.688,85.086 84.351,73.102 82.563,72.924 83.009,73.85 80.085,78.99 77.329,83.031 76.431,92.389 			"/>
			</g>
			<g>
				<path fill="white" d="M111.053,113.896l-4.643-7.125l-6.995,1.398l-0.742-8.652l8.301-7.549l11.656,3.146l-1.149,8.246l-0.396,1.992L111.053,113.896z M108.28,102.326l2.904,4.459l2.147-3.041l0.22-1.104l0.638-4.588l-6.146-1.658l-5.223,4.75l0.192,2.234L108.28,102.326z"/>
			</g>
		</g>
	</g>
</svg>